<svg width="128" height="131" viewBox="0 0 128 131" fill="none" xmlns="http://www.w3.org/2000/svg">
<g clip-path="url(#clip0_78_39)">
<path d="M127.939 66.7255C127.939 61.3585 127.503 57.442 126.561 53.3805H65.275V77.6045H101.248C100.523 83.6245 96.607 92.6905 87.9035 98.7825L87.7815 99.5935L107.159 114.605L108.502 114.739C120.831 103.352 127.939 86.598 127.939 66.7255Z" fill="#4285F4"/>
<path d="M65.275 130.55C82.899 130.55 97.6945 124.747 108.502 114.739L87.9035 98.7825C82.3915 102.627 74.9935 105.31 65.275 105.31C48.0135 105.31 33.363 93.9235 28.1405 78.185L27.375 78.25L7.226 93.8435L6.9625 94.576C17.6965 115.899 39.745 130.55 65.275 130.55Z" fill="#34A853"/>
<path d="M28.1405 78.185C26.7625 74.1235 25.965 69.7715 25.965 65.275C25.965 60.778 26.7625 56.4265 28.068 52.365L28.0315 51.5L7.63 35.656L6.9625 35.9735C2.5385 44.822 0 54.7585 0 65.275C0 75.7915 2.5385 85.7275 6.9625 94.576L28.1405 78.185Z" fill="#FBBC05"/>
<path d="M65.275 25.2395C77.532 25.2395 85.8 30.534 90.5145 34.9585L108.937 16.9715C97.6225 6.455 82.899 0 65.275 0C39.745 0 17.6965 14.6505 6.9625 35.9735L28.068 52.365C33.363 36.6265 48.0135 25.2395 65.275 25.2395Z" fill="#EB4335"/>
</g>
<defs>
<clipPath id="clip0_78_39">
<rect width="128" height="131" fill="white"/>
</clipPath>
</defs>
</svg>
